# xmcd
#
# Track frame offsets:
#	150
#	26315
#	49052
#	78994
#	98321
#	116620
#	139274
#	155856
#	176186
#	195987
#	215647
#	230077
#	246271
#	269813
#	292003
#	309855
# Disc length: 4366 seconds
#
# Submitted via: libkcddb 0.5
# Revision: 0
# Processed by: cddbd v1.5.2PL0 Copyright (c) Steve Scherf et al.
#
DISCID=e7110c10
DTITLE=B. B. King - Deuces Wild
DYEAR=1997
DGENRE=Blues
TTITLE0=B.b. King - If You Love Me
TTITLE1=B.b. King - The Thrill Is Gone
TTITLE2=B.b. King - Rock Me Baby
TTITLE3=B.b. King - Please Send Me Someone To Love
TTITLE4=B.b. King - Baby I Love You
TTITLE5=B.b. King - Ain't Nobody Home
TTITLE6=B.b. King - Pauly's Birthday Boogie
TTITLE7=B.b. King - There Must Be A Better World Somewhere
TTITLE8=B.b. King - Confessin The Blues
TTITLE9=B.b. King - Hummingbird
TTITLE10=B.b. King - Bring It Home To Me
TTITLE11=B.b. King - Paying The Cost To Be The Boss
TTITLE12=B.b. King - Let The Good Times Roll
TTITLE13=B.b. King - Dangerous Mood
TTITLE14=B.b. King - Keep It Coming
TTITLE15=B.b. King - Cryin' Won't Help You Babe
EXTD=
EXTT0=
EXTT1=
EXTT2=
EXTT3=
EXTT4=
EXTT5=
EXTT6=
EXTT7=
EXTT8=
EXTT9=
EXTT10=
EXTT11=
EXTT12=
EXTT13=
EXTT14=
EXTT15=
PLAYORDER=
